<?xml version="1.0" encoding="utf-8"?>
<!-- Generator: Adobe Illustrator 25.1.0, SVG Export Plug-In . SVG Version: 6.00 Build 0)  -->
<svg version="1.1" id="Layer_1" xmlns="http://www.w3.org/2000/svg" xmlns:xlink="http://www.w3.org/1999/xlink" x="0px" y="0px"
	 viewBox="0 0 224.3 36.1" style="enable-background:new 0 0 224.3 36.1;" xml:space="preserve">
<style type="text/css">
</style>
<g fill="#ffffff">
	<path d="M67.3,35.2c-4.9,0-9.5,0-14.3,0c0-0.5,0-0.9,0-1.4c0-8.7,0.1-17.5,0-26.2c0-2.7,1.2-4.5,3.4-5.6c2.8-1.5,5.9-1.9,9.1-1.9
		c3,0,5.9,0.1,8.8,1c2.4,0.7,4.1,2.1,5.1,4.5c2.5,6,5.1,11.9,7.7,17.8c0.2,0.4,0.3,0.7,0.6,1.3c0.3-0.5,0.5-0.9,0.7-1.2
		c2.9-6,5.8-12,8.7-18c1-2.2,2.7-3.8,5-4.3c2.6-0.6,5.2-0.9,7.8-1c4.1-0.2,8.1,0,12.2-0.1c0.9,0,1.2,0.3,1.2,1.2c0,11,0,22,0,33
		c0,0.3-0.1,0.5-0.1,0.9c-4.6,0-9.3,0-14,0c0-8.1,0-16.2,0-24.3c-0.1,0-0.2-0.1-0.3-0.1c-0.2,0.3-0.4,0.7-0.6,1
		c-3.2,6.3-6.5,12.5-9.7,18.8c-1.5,3-3.8,4.8-7.1,5.2c-2.7,0.4-5.3,0.4-8-0.3c-2.4-0.7-4.2-2.1-5.4-4.4c-3.3-6.4-6.6-12.9-9.8-19.3
		c-0.2-0.3-0.4-0.7-0.8-1C67.3,18.9,67.3,27,67.3,35.2z"/>
	<path d="M33.4,21.7c5.5,4.4,10.9,8.9,16.6,13.5c-0.6,0-0.9,0.1-1.3,0.1c-5,0-10.1,0-15.1,0c-0.6,0-1.4-0.3-1.9-0.7
		c-4.8-3.9-9.6-7.9-14.5-11.8c-2.4-2-2.2-4.8,0.6-6.1c1.6-0.8,3.5-1.1,5.3-1.3c2.5-0.2,4.9-0.1,7.4-0.1c0.7,0,1.4-0.1,2-0.2
		c1.7-0.3,2.1-0.9,2.2-2.6c0-0.5,0-1,0-1.4c0-2-0.4-2.5-2.4-2.9c-0.7-0.2-1.4-0.3-2.1-0.3c-4.8,0-9.6,0-14.4,0c-1,0-0.9,0.7-0.9,1.3
		c0,8.2,0,16.4,0,24.5c0,0.5,0,0.9,0,1.5c-5,0-9.9,0-14.9,0c0-0.4-0.1-0.8-0.1-1.3C0,23.2,0,12.5,0,1.8c0-1,0.2-1.4,1.3-1.4
		c11.5,0,23.1,0,34.6,0c3.1,0,6.1,0.3,9.1,1.4c3.3,1.3,4.5,3,4.5,6.5c0,1.4,0,2.9,0,4.3c0,4.3-1.2,6-5.2,7.5c-3,1.1-6.1,1.3-9.2,1.3
		c-0.5,0-1,0-1.5,0C33.5,21.6,33.4,21.6,33.4,21.7z"/>
	<path d="M140.2,8.7c-0.3,0.1-0.5,0.1-0.6,0.1c-1.9,0.1-1.9,0.1-1.9-1.7c0-1.4,0-2.8,0-4.1c-0.1,0-0.2-0.1-0.3-0.1
		c-0.5,0.8-1,1.7-1.4,2.5c-0.5,0.9-1,1.7-1.5,2.6c-0.7,1.3-2.3,1.3-3,0c-1-1.7-1.9-3.4-3-5.3c-0.1,0.5-0.2,0.8-0.2,1
		c0,1.4-0.1,2.7,0,4.1c0.1,1-0.4,1.2-1.3,1.2c-0.8,0-1.2-0.2-1.2-1.2c0-2.2,0-4.4,0-6.6c0-0.8,0.3-1,1.1-1c3-0.1,3-0.1,4.4,2.5
		c0.5,1,1.1,2,1.8,3.3c0.8-1.6,1.7-2.9,2.3-4.3c0.5-1.2,1.3-1.6,2.6-1.5c2.3,0.1,2.3,0,2.3,2.4C140.2,4.5,140.2,6.6,140.2,8.7z"/>
	<path d="M193.4,9c-1.3-0.1-2.6-0.1-3.8-0.3c-1.4-0.2-2.1-1-2.1-2.5c0-1.2-0.1-2.5,0-3.7c0.1-1.4,0.7-2.3,2.2-2.4
		c2.5-0.2,5.1-0.2,7.6,0c1.5,0.1,2.1,1,2.3,2.5c0.1,1.2,0.1,2.4,0,3.6c-0.1,1.7-1,2.5-2.8,2.7c-1.1,0.1-2.2,0-3.3,0
		C193.4,8.9,193.4,9,193.4,9z M193.4,6.8c3.4,0,3.7-0.3,3.4-3.2c-0.1-0.9-0.5-1.5-1.4-1.5c-1.4,0-2.7-0.1-4.1,0.1
		c-0.4,0-1,0.5-1.2,1c-0.8,2.4,0,3.6,2.6,3.6C193,6.8,193.2,6.8,193.4,6.8z"/>
	<path d="M158.5,21.1c-1.2,0-2.4,0.1-3.6,0c-1.6-0.1-2.4-1-2.4-2.6c0-1.2,0-2.4,0-3.6c0.1-1.5,0.8-2.5,2.3-2.5
		c2.4-0.1,4.9-0.1,7.3,0c1.4,0.1,2.2,0.8,2.3,2.3c0.1,1.4,0.1,2.8,0,4.2c-0.1,1.4-0.9,2.1-2.4,2.3C160.9,21.2,159.7,21.1,158.5,21.1
		C158.5,21.1,158.5,21.1,158.5,21.1z M158.4,19.1c0.2,0,0.5,0,0.7,0c2.6,0,2.8-0.2,2.7-2.8c-0.1-1.4-0.5-1.8-1.9-1.9
		c-0.9,0-1.8,0-2.8,0c-1.7,0-2.1,0.5-2.1,2.2c0,2.2,0.3,2.5,2.4,2.5C157.8,19.1,158.1,19.1,158.4,19.1z"/>
	<path d="M217.3,8.8c-1.3,0-2.6,0-3.8,0c-0.7,0-1-0.1-1-0.9c0-2.3,0-4.6,0-6.9c0-0.6,0.2-0.9,0.8-0.9c2.8,0,5.7,0,8.5,0.1
		c1.6,0.1,2.4,0.9,2.5,2.5c0.1,1.2,0.1,2.4,0,3.6c-0.1,1.6-0.8,2.3-2.4,2.4C220.3,8.8,218.8,8.7,217.3,8.8
		C217.3,8.8,217.3,8.8,217.3,8.8z M218,6.7c0.6,0,1.2,0,1.8,0c1.5,0,1.8-0.4,1.9-1.8c0-0.3,0-0.6,0-1c-0.1-1.3-0.4-1.7-1.8-1.7
		c-1.1,0-2.2,0-3.3,0c-1.6,0-1.6,0-1.6,1.5C215,6.7,215,6.7,218,6.7z"/>
	<path d="M131.3,17.9c0-0.6,0-1.1,0-1.6c0.4,0,0.7-0.1,1-0.1c1.6,0,3.2,0,4.9,0c0,1.2,0.1,2.2,0,3.3c-0.1,1.1-0.9,1.6-1.9,1.6
		c-2.4,0.1-4.7,0.1-7.1,0c-1.5-0.1-2.3-1-2.4-2.5c-0.1-1.3-0.1-2.6,0-3.8c0.1-1.5,0.9-2.3,2.3-2.4c2.3-0.1,4.6-0.1,6.9,0
		c0.4,0,1.1,0.2,1.3,0.5c0.4,0.6,0.5,1.4,0.7,2.1c-0.8,0-1.9,0.3-2.3-0.1c-0.7-0.6-1.4-0.7-2.2-0.7c-0.8,0-1.6,0-2.4,0
		c-1.3,0.1-1.7,0.4-1.8,1.7c-0.2,3,0.1,3.3,3.1,3.3c0.8,0,1.6,0,2.4-0.2c0.3-0.1,0.5-0.5,0.7-0.8c-0.3-0.1-0.6-0.4-0.9-0.4
		C132.9,17.8,132.1,17.9,131.3,17.9z"/>
	<path d="M160.1,2.7c0,1.6-0.1,3.2,0,4.8c0.1,1-0.4,1.3-1.3,1.3c-1,0-1.3-0.3-1.3-1.3c0.1-2.1,0.1-4.2,0-6.3c0-0.9,0.3-1.1,1.2-1.2
		c2.1-0.2,3.6,0.3,4.8,2.2c0.9,1.4,2.1,2.7,3.1,4c0.1,0,0.2-0.1,0.3-0.1c0-2,0-3.9,0-5.9c0.3-0.1,0.5-0.1,0.7-0.2
		c1.9-0.2,1.9-0.1,1.9,1.7c0,2,0,4,0,6c0,0.8-0.3,1.1-1.1,1c-0.1,0-0.2,0-0.2,0c-2,0.3-3.5-0.3-4.6-2.1c-0.9-1.5-2.1-2.7-3.2-4.1
		C160.3,2.7,160.2,2.7,160.1,2.7z"/>
	<path d="M148.9,17.7c1.5,0.7,1.3,2,1.2,3.3c-0.8,0-1.6,0-2.4,0c0-0.3-0.1-0.6-0.1-0.9c0-0.9-0.6-1.3-1.5-1.3c-0.9,0-1.8,0.1-2.8,0
		c-1-0.1-1.5,0.2-1.4,1.3c0,0.3,0,0.6,0,0.9c-0.8,0-1.6,0-2.4,0c0-2.8,0-5.7,0-8.6c3,0,5.9,0,8.8,0c0.9,0,1.6,0.6,1.8,1.5
		c0.1,1.2,0.5,2.4-0.6,3.3C149.4,17.5,149.2,17.5,148.9,17.7z M142.1,16.7c1.5,0,2.9,0,4.3,0c0.8,0,1.2-0.3,1.2-1.1
		c0-0.8-0.4-1.2-1.2-1.2c-1,0-1.9,0-2.9,0c-1.7,0-1.7,0-1.6,1.7C142,16.3,142.1,16.4,142.1,16.7z"/>
	<path d="M182.5,21.1c-0.8,0-1.5,0-2.4,0c0-2.9,0-5.7,0-8.7c1.5,0,3.1,0,4.6,0c1,0,2.1,0,3.1,0c1.8,0.1,2.6,0.9,2.7,2.7
		c0,0.4,0,0.9,0,1.3c-0.1,1.7-0.9,2.5-2.6,2.5c-1.3,0-2.6,0.1-3.9,0c-1.1-0.1-1.6,0.3-1.4,1.4C182.6,20.5,182.5,20.8,182.5,21.1z
		 M185.1,16.9C185.1,16.9,185.1,16.9,185.1,16.9c0.5,0,1,0,1.6,0c0.8,0,1.3-0.4,1.3-1.2c0-0.8-0.4-1.2-1.2-1.2c-1.1,0-2.2,0-3.3,0
		c-0.2,0-0.6,0.2-0.7,0.4c-0.5,1.3,0,1.9,1.4,2C184.4,16.9,184.7,16.9,185.1,16.9z"/>
	<path d="M175.2,12.4c0.9,0,1.6,0,2.5,0c0,2.2,0.1,4.5,0,6.7c-0.1,1.2-1.1,2-2.3,2c-2,0.1-4.1,0.1-6.1,0c-1.5-0.1-2.3-0.9-2.4-2.3
		c-0.1-2.1,0-4.2,0-6.4c0.8,0,1.5,0,2.5,0c0,1.2,0,2.3,0,3.5c0,0.6,0,1.1,0,1.7c0,1,0.6,1.4,1.5,1.5c0.9,0,1.8,0,2.8,0
		c1.1,0,1.6-0.5,1.6-1.6C175.2,15.9,175.2,14.2,175.2,12.4z"/>
	<path d="M155.3,8.8c-1.5,0-2.8,0.6-3.5-1.1c-0.1-0.2-0.7-0.4-1-0.4c-1.1,0-2.2,0-3.2,0c-0.9,0-1.7,0-2.1,1.1
		c-0.1,0.3-0.8,0.4-1.2,0.5c-0.5,0.1-1.1,0-1.9,0c0.4-0.8,0.8-1.4,1.1-2.1c1-1.9,2.1-3.8,3.1-5.7c0.4-0.8,0.9-1.1,1.7-1
		c0.2,0,0.3,0,0.5,0c1.4-0.3,2.2,0.4,2.8,1.7C152.6,4.1,153.9,6.3,155.3,8.8z M147,5.4c1.3,0,2.3,0,3.6,0c-0.6-1.2-1.2-2.2-1.8-3.4
		C148.1,3.3,147.6,4.3,147,5.4z"/>
	<path d="M184.9,5.8c-1.5,0-2.9,0-4.2,0c-1.9,0-1.9-0.2-1.8,1.8c0,0.9-0.2,1.3-1.2,1.3c-1.1,0-1.5-0.3-1.4-1.4
		c0.1-2.1,0.1-4.1,0-6.2c0-0.9,0.3-1.2,1.2-1.1c2.3,0,4.6,0,6.9,0c0.7,0,1.1,0.1,1.1,1c0,0.8-0.3,1-1.1,1c-1.5,0-3,0-4.6,0
		c-0.7,0-1,0.2-1,0.9c0,0.8,0.4,0.9,1.1,0.9c1.2,0,2.5,0,3.7,0C185.1,3.9,185.2,4,184.9,5.8z"/>
	<path d="M201.6,0.3c0.3-0.1,0.4-0.1,0.5-0.2c2-0.2,2.1-0.2,2.1,1.9c0,1.1,0.1,2.2,0,3.3c-0.1,1.2,0.4,1.4,1.4,1.4
		c1.5-0.1,3.1,0,4.6,0c0.4,2.1,0.4,2.1-1.5,2.1c-2,0-3.9,0-5.9,0c-0.9,0-1.2-0.3-1.2-1.2C201.7,5.2,201.6,2.7,201.6,0.3z"/>
	<path d="M174.1,4.5c0,1.1,0,2.2,0,3.3c0,0.9-0.5,1-1.1,0.9c-0.6,0-1.4,0.2-1.4-0.9c0-2.3,0-4.6,0-6.9c0-1.1,0.8-0.9,1.4-0.9
		c0.7-0.1,1.2,0.1,1.2,1C174.1,2.2,174.1,3.4,174.1,4.5z"/>
	<path d="M175.1,26.6c0-1,0-2,0-3c0-0.2,0.4-0.4,0.6-0.6c0.2,0.2,0.5,0.4,0.5,0.6c0,1.7,0,3.4,0,5.1c-0.9,0.4-1.4,0.1-1.9-0.6
		c-0.6-1-1.3-2-2-2.9c-0.1,0-0.2,0.1-0.3,0.1c0,0.9,0,1.9,0,2.8c0,0.8-0.1,0.8-1.2,0.7c0-1.7,0-3.4,0-5.1c0-0.2,0.3-0.6,0.4-0.6
		c0.4,0.1,1,0.2,1.2,0.5c0.8,1,1.5,2.1,2.2,3.2C174.9,26.6,175,26.6,175.1,26.6z"/>
	<path d="M183.5,25c-0.6-0.3-1.1-0.4-1.4-0.6c-0.9-0.7-1.9-0.7-2.5,0c-0.8,0.9-0.6,2.6,0.2,3.3c0.8,0.6,1.7,0.4,2.5-0.4
		c0.3-0.3,0.7-0.4,1.2-0.7c0,1.6-0.9,2.4-2.4,2.5c-1.7,0.1-3-1-3.2-2.6c-0.2-1.9,0.7-3.2,2.2-3.5C181.9,22.6,183.1,23.2,183.5,25z"
		/>
	<path d="M168.2,25.9c0-0.8-0.1-1.5,0-2.3c0-0.2,0.4-0.4,0.6-0.6c0.2,0.2,0.5,0.5,0.5,0.7c0,1.5,0.1,3,0,4.4c0,0.2-0.4,0.5-0.6,0.7
		c-0.2-0.2-0.6-0.4-0.6-0.7C168.2,27.4,168.2,26.6,168.2,25.9z"/>
	<path d="M185.1,27.6c0.3,0.2,0.6,0.4,1,0.6c-0.2,0.2-0.4,0.4-0.6,0.6c-0.3-0.3-0.5-0.5-0.8-0.8C184.8,27.9,185,27.7,185.1,27.6z"/>
</g>
</svg>
